<?xml version="1.0" encoding="utf-8"?>
<!-- Generator: Adobe Illustrator 18.1.0, SVG Export Plug-In . SVG Version: 6.00 Build 0)  -->
<svg version="1.1" id="Слой_1" xmlns="http://www.w3.org/2000/svg" xmlns:xlink="http://www.w3.org/1999/xlink" x="0px" y="0px"
	 viewBox="0 0 200 85" enable-background="new 0 0 200 85" xml:space="preserve">
<g>
	<path fill="#E20613" d="M19.1,0h-4.4c-4.4,0-8.1,3.3-8.1,9.8c0,3.9,1.8,6.7,5,8.1l-6,10.8c-0.2,0.4,0,0.6,0.3,0.6h2.8
		c0.2,0,0.4-0.1,0.5-0.3l5.4-10.6h1.9v10.6c0,0.1,0.1,0.3,0.3,0.3h2.4c0.2,0,0.3-0.1,0.3-0.3V0.4C19.6,0.1,19.4,0,19.1,0z M16.6,16
		h-1.6c-2.6,0-5.1-1.9-5.1-6.6c0-4.9,2.3-6.9,4.7-6.9h2V16z"/>
	<path fill="#1D1D1B" d="M33.8,9.7h-2.4C31.2,9.7,31,9.9,31,10v7.5h-4.5V10c0-0.2-0.1-0.3-0.3-0.3h-2.4c-0.2,0-0.3,0.1-0.3,0.3v19
		c0,0.2,0.1,0.3,0.3,0.3h2.5c0.2,0,0.3-0.1,0.3-0.3v-9.1H31V29c0,0.2,0.1,0.3,0.3,0.3h2.4c0.2,0,0.3-0.2,0.3-0.3V10
		C34,9.8,33.9,9.7,33.8,9.7z"/>
	<path fill="#1D1D1B" d="M88.9,28.1l-0.3-1.3c0-0.1-0.1-0.2-0.2-0.2c-0.2,0-1.2,0.4-2.8,0.4c-3,0-4.4-2.9-4.4-7.4
		c0-4,1.2-7.9,3.2-7.9c0.5,0,1.2,0.2,2.3,1.1c0.1,0.1,0.2,0.2,0.3,0.2c0.1,0,0.2-0.1,0.3-0.3l1.1-1.7c0.1-0.1,0.1-0.2,0.1-0.4
		c0-0.2-0.2-0.3-0.4-0.4c-1.6-0.8-2.7-1-3.6-1c-3.7,0-6.5,4.4-6.5,11.2c0,5.9,2.7,9.3,6.6,9.3c1.6,0,3.4-0.8,4.1-1.3
		C88.9,28.4,88.9,28.2,88.9,28.1z"/>
	<path fill="#1D1D1B" d="M72,18.6l4.7-8.6c0.1-0.1,0-0.3-0.1-0.3h-2.3c-0.7,0-0.9,0.2-1.1,0.7l-3.5,7.3c-0.2,0.4-0.4,0.7-0.6,0.8V10
		c0-0.2-0.1-0.3-0.2-0.3h-2.5C66.1,9.7,66,9.8,66,10v19.1c0,0.1,0.1,0.3,0.2,0.3h2.5c0.2,0,0.2-0.1,0.2-0.3v-9.8
		c0.1,0.1,0.2,0.2,0.3,0.4l4.4,9.2c0.2,0.5,0.6,0.6,1.1,0.6h2.5c0.2,0,0.2-0.2,0.1-0.3L72,18.6z"/>
	<path fill="#1D1D1B" d="M49.7,26.9h-0.5c-0.6,0-0.7-0.2-0.7-0.7V10c0-0.2-0.1-0.3-0.2-0.3h-7.8c-0.2,0-0.3,0.1-0.3,0.3v1.4
		c0,4.7-0.3,10.8-2.8,15.5h-0.9c-0.2,0-0.3,0.1-0.3,0.3c0,0,0,4.7,0,5.7c0,0.2,0.2,0.3,0.3,0.3h1.9c0.4,0,0.6-0.3,0.6-0.6v-3.2h8.3
		v3.6c0,0.2,0.1,0.3,0.3,0.3h2c0.2,0,0.5-0.2,0.5-0.6v-5.4C50,27,49.8,26.9,49.7,26.9z M45.4,26.9h-5.6c2-3.4,2.8-7.2,3-11.9
		c0.1-1,0.1-2.1,0.1-2.7h2.5V26.9z"/>
	<path fill="#1D1D1B" d="M57.6,9.3c-4.2,0-6.1,5.3-6.1,11.1c0,5.9,2.6,9.4,6.5,9.4c1.9,0,3.6-0.7,4.4-1.3c0.2-0.1,0.2-0.2,0.2-0.4
		l-0.3-1.3c0-0.2-0.1-0.2-0.3-0.2c-0.2,0-1.3,0.4-2.9,0.4c-3,0-4.4-2.6-4.4-6.1c0-0.5,0-0.9,0-0.9s1.5,0.2,2.4,0.2h5.7v-1.6
		C62.9,12.5,60.7,9.3,57.6,9.3z M57.2,17.7c-0.9,0-2.3,0.2-2.3,0.2s0-0.6,0.1-1.2c0.3-3.3,1.2-5,2.5-5c1.2,0,2,1.7,2.2,4.7
		c0,0.6,0,1.3,0,1.3H57.2z"/>
	<path fill="#1D1D1B" d="M77.5,78.2h6.4c5.9,0,10.8-3.4,10.8-11.5c0-7.8-4.8-10.6-11.1-10.6c-0.8,0-1.6,0-1.6,0v-12
		c0-0.2-0.2-0.4-0.4-0.4h-4.4c-0.4,0-0.5,0.2-0.5,0.5v33.4C76.7,78.1,76.9,78.2,77.5,78.2z M82,60.4h1.5c3.9,0,6.2,2.7,6.2,6.5
		c0,4.7-2.3,7.3-6,7.3H82V60.4z"/>
	<path fill="#1D1D1B" d="M69.9,43.7h-4.3c-0.3,0-0.5,0.3-0.5,0.5v13.2h-7.9V44.2c0-0.3-0.1-0.5-0.5-0.5h-4.3c-0.3,0-0.5,0.2-0.5,0.5
		v33.5c0,0.3,0.1,0.6,0.5,0.6h4.3c0.3,0,0.5-0.2,0.5-0.6v-16h7.9v16c0,0.3,0.2,0.6,0.5,0.6h4.3c0.3,0,0.5-0.3,0.5-0.6V44.2
		C70.4,43.9,70.2,43.7,69.9,43.7z"/>
	<g>
		<path fill="#1D1D1B" d="M23.7,73.9h-0.8c-1,0-1.3-0.4-1.3-1.2V44.2c0-0.3-0.1-0.5-0.4-0.5H7.5c-0.3,0-0.5,0.2-0.5,0.5v2.5
			c0,8.3-0.5,19.1-4.9,27.2H0.5c-0.4,0-0.5,0.2-0.5,0.6c0,0,0,8.3,0,10.1C0,84.9,0.3,85,0.5,85h3.3c0.8,0,1-0.5,1-1v-5.7h14.7v6.3
			c0,0.3,0.2,0.5,0.5,0.5h3.5c0.4,0,0.8-0.3,0.8-1v-9.5C24.3,74.1,24.1,73.9,23.7,73.9z M16.3,73.9h-10c3.5-6,4.9-12.8,5.4-21
			c0.1-1.8,0.2-3.7,0.2-4.8h4.4V73.9z"/>
		<path fill="#1D1D1B" d="M37.7,42.9c-7.4,0-10.7,9.4-10.7,19.6c0,10.4,4.7,16.6,11.5,16.6c3.4,0,6.3-1.3,7.8-2.3
			c0.3-0.1,0.3-0.3,0.3-0.6l-0.5-2.3c-0.1-0.3-0.2-0.4-0.5-0.4c-0.3,0-2.3,0.8-5.1,0.8c-5.3,0-7.8-4.6-7.8-10.7c0-0.8,0-1.6,0-1.6
			s2.7,0.3,4.3,0.3h10v-2.9C47,48.6,43.2,42.9,37.7,42.9z M37,57.8c-1.6,0-4,0.3-4,0.3s0-1,0.1-2.1c0.6-5.9,2.1-8.8,4.5-8.8
			c2.2,0,3.6,3,3.9,8.3c0.1,1.1,0.1,2.3,0.1,2.3H37z"/>
	</g>
	<path fill="#1D1D1B" d="M114.1,43.7H99.7c-0.3,0-0.5,0.2-0.5,0.5v33.5c0,0.3,0.1,0.6,0.5,0.6h4.3c0.3,0,0.5-0.2,0.5-0.6V48.1h9.7
		c0.2,0,0.5-0.1,0.5-0.5c0-0.4,0-3.4,0-3.4C114.6,43.9,114.4,43.7,114.1,43.7z"/>
	<path fill="#1D1D1B" d="M135.4,43.7h-3.9c-0.2,0-0.4,0.1-0.5,0.3c0,0.1-8,22-8,22l-0.5,1.8V44.2c0-0.3-0.1-0.5-0.5-0.5h-4
		c-0.3,0-0.5,0.2-0.5,0.5v33.2c0,0.7,0.1,0.9,0.5,0.9h4c0.2,0,0.4-0.1,0.4-0.3c0-0.1,8.2-22.2,8.2-22.2l0.3-1.1v23.1
		c0,0.3,0.2,0.6,0.5,0.6h3.9c0.3,0,0.5-0.3,0.5-0.9c0,0,0-33.2,0-33.3C135.9,43.8,135.7,43.7,135.4,43.7z"/>
	<path fill="#ED7402" d="M195.9,43.6h-2.8v17.3c0,3.1-1.3,4.9-5.2,5.8l-25.1,7.1c0,0-2.1,0.6-2.1-1.4c0-1.6,1.9-1.8,2.2-2.1l-0.1,0
		l22.9-9.1c1.9-1.1,3.4-3.5,3.4-5.4V28.6c0-4.3-4.2-2.8-5.1-2.3c-1,0.6-26.5,14.9-26.5,14.9c-1.9,1.1-3.4,3.5-3.4,5.4v27.1
		c0,1.9,2.7,4.4,4.5,4.5v0h37.4c2.2,0,4.1-1.6,4.1-3.5V47.1C200,45.2,198.2,43.6,195.9,43.6z M177.8,41.5c1.8-1.2,3.4-0.8,3.7,0.8
		c0.3,1.6-0.7,3.7-2.5,4.9c-1.8,1.2-3.4,0.8-3.7-0.9C175.1,44.8,176.1,42.7,177.8,41.5z"/>
</g>
</svg>
