<?xml version="1.0" encoding="utf-8"?>
<!-- Generator: Adobe Illustrator 18.1.0, SVG Export Plug-In . SVG Version: 6.00 Build 0)  -->
<svg version="1.1" id="Слой_1" xmlns="http://www.w3.org/2000/svg" xmlns:xlink="http://www.w3.org/1999/xlink" x="0px" y="0px"
	 viewBox="0 0 210 42" enable-background="new 0 0 210 42" xml:space="preserve">
<g>
	<polygon fill-rule="evenodd" clip-rule="evenodd" fill="#62B12F" points="46.7,36.3 40.7,36.3 40.7,14.5 62.5,14.5 62.5,36.3 
		56.5,36.3 56.5,18.7 46.7,18.7 46.7,36.3 	"/>
	<path fill-rule="evenodd" clip-rule="evenodd" fill="#62B12F" d="M70.8,28.3c0-4.4,2.7-5.3,4.4-5.3c1.7,0,4.3,0.9,4.3,5.3
		c0,2.7-1.1,5.3-4.3,5.3C71.9,33.7,70.8,31.1,70.8,28.3L70.8,28.3z M65.5,20.5V42h5.6v-7.4c1.9,2.1,4.9,2.2,5.7,2.2
		c5.3,0,8.6-3.4,8.6-8.5c0-5.2-3.2-8.5-8.5-8.5c-1.3,0-3.9,0.2-6,2.5h-0.1l0-1.9H65.5L65.5,20.5z"/>
	<path fill-rule="evenodd" clip-rule="evenodd" fill="#62B12F" d="M99.2,34.4c-2.1,2-4.1,2.5-6.3,2.5c-6,0-6.3-4.6-6.3-6.5v-9.9h5.6
		v9.1c0,3.1,1.1,4.1,3.1,4.1c3.5,0,3.8-3.2,3.8-4.4v-8.9h5.6v15.8h-5.6V34.4L99.2,34.4z"/>
	<path fill-rule="evenodd" clip-rule="evenodd" fill="#62B12F" d="M112.9,23.6h3c1.6,0,2.9,0.2,2.9,1.6c0,1.4-2.1,1.5-3.1,1.5
		l-2.9,0V23.6L112.9,23.6z M107.3,20.5v15.8h11.1c4.1,0,6.9-0.8,6.9-4c0-2.5-1.4-3.6-4.5-4.1V28c2-0.3,3.8-1.6,3.8-3.7
		c0-3.8-4.4-3.8-6.1-3.8H107.3L107.3,20.5z M112.9,29.6h3.4c2.7,0,3.2,0.8,3.2,1.9c0,0.7-0.4,1.6-3.1,1.6h-3.5V29.6L112.9,29.6z"/>
	<path fill-rule="evenodd" clip-rule="evenodd" fill="#62B12F" d="M138.8,29.7c0,3.2-2.7,3.9-4.1,3.9c-1,0-2.9-0.3-2.9-1.8
		c0-1.8,2.1-2.1,3.3-2.3c2.2-0.3,2-0.2,3.7-0.8V29.7L138.8,29.7z M132.3,25.6L132.3,25.6c0-2.3,2.4-2.5,3.4-2.5c0.6,0,2.9,0,3,2.1
		c0,0.2,0,0.3,0,0.4c-0.1,1.6-1.6,1.2-5.7,1.8c-3.4,0.5-7,1.3-7,4.9c0,1.3,0.6,4.6,6.5,4.6c2.3,0,4.8-0.6,6.3-2.1l0.1,0l0.5,1.6h5.9
		V36c-1.1-0.2-1.1-1.3-1.1-3l0.1-7.2c0-1.8-0.1-5.9-8.6-5.9c-2,0-8.5,0.2-8.8,5.7L132.3,25.6L132.3,25.6z"/>
	<polygon fill-rule="evenodd" clip-rule="evenodd" fill="#62B12F" points="145,23.6 145,20.5 162.9,20.5 162.9,23.6 156.8,23.6 
		156.8,36.3 151.2,36.3 151.2,23.6 145,23.6 	"/>
	<polygon fill-rule="evenodd" clip-rule="evenodd" fill="#1D1D1B" points="0,36.3 14,36.3 14,22.1 0,22.1 0,36.3 	"/>
	<path fill-rule="evenodd" clip-rule="evenodd" fill="#62B12F" d="M0,0v17.7h3.7c9.8,0,14.7,5,14.7,14.9v3.8h17.4V0H0L0,0z
		 M28.5,7.5L28.5,7.5c0,4.8,0,16.5,0,21.3c-1.3,0-1.6,0-2.9,0c-1.2-10.5-7.8-17.1-18.2-18.4c0-1.3,0-1.5,0-2.9
		C12.2,7.5,23.7,7.5,28.5,7.5L28.5,7.5z"/>
	<g>
		<path fill="#1D1D1B" d="M186.9,36.3h-20c0.2-2,0.9-3.9,2.1-5.6c1.2-1.8,3.3-3.8,6.5-6.2c2-1.5,3.2-2.6,3.7-3.3
			c0.5-0.8,0.8-1.5,0.8-2.2c0-0.7-0.3-1.4-0.8-1.9c-0.5-0.5-1.2-0.8-2-0.8c-0.9,0-1.5,0.3-2.1,0.8c-0.5,0.5-0.9,1.5-1.1,2.9
			l-6.7-0.5c0.3-1.9,0.7-3.4,1.4-4.4c0.7-1.1,1.7-1.9,3-2.5c1.3-0.6,3-0.9,5.3-0.9c2.3,0,4.2,0.3,5.5,0.8c1.3,0.5,2.3,1.4,3.1,2.5
			c0.7,1.1,1.1,2.4,1.1,3.8c0,1.5-0.4,2.9-1.3,4.2c-0.9,1.3-2.4,2.8-4.7,4.4c-1.3,0.9-2.2,1.6-2.7,2c-0.5,0.4-1,0.9-1.6,1.5h10.4
			V36.3z"/>
		<path fill="#1D1D1B" d="M201.2,31.7H189v-5.6l12.1-14.6h5.8v14.9h3v5.2h-3v4.5h-5.8V31.7z M201.2,26.5v-7.6l-6.4,7.6H201.2z"/>
	</g>
</g>
</svg>
