<?xml version="1.0" encoding="utf-8"?>
<!-- Generator: Adobe Illustrator 18.1.0, SVG Export Plug-In . SVG Version: 6.00 Build 0)  -->
<svg version="1.1" xmlns="http://www.w3.org/2000/svg" xmlns:xlink="http://www.w3.org/1999/xlink" x="0px" y="0px"
	 viewBox="0 0 150 100" enable-background="new 0 0 150 100" xml:space="preserve">
<g id="Слой_1">
	<g>
		<path fill="#F28A33" d="M75,4.1c39.2,0,71,18,71,40.2c0,22.2-31.8,40.2-71,40.2c-7.6,0-14.9-0.7-21.8-1.9L29,91.9L33.6,77
			C15.7,69.7,4,57.8,4,44.3C4,22.1,35.8,4.1,75,4.1 M75,0.1c-19.6,0-38.2,4.4-52.2,12.3C8.1,20.7,0,32.1,0,44.3
			c0,13.8,10.7,26.6,28.7,34.9l-3.6,11.5l-2.4,7.9l7.7-3l23.2-8.9c6.9,1.2,14.1,1.8,21.4,1.8c19.6,0,38.2-4.4,52.2-12.3
			c14.7-8.3,22.8-19.7,22.8-31.9s-8.1-23.6-22.8-31.9C113.2,4.4,94.6,0.1,75,0.1L75,0.1z"/>
	</g>
</g>
<g id="Слой_2">
	<g>
		<path fill="#F28A33" d="M45.4,58.8c-2.1,0-4-0.2-5.6-0.6s-3.1-0.9-4.5-1.5v-6.6H36c1.4,1.2,2.9,2.1,4.6,2.7s3.3,0.9,4.9,0.9
			c0.4,0,0.9,0,1.6-0.1s1.2-0.2,1.6-0.4c0.5-0.2,0.9-0.5,1.2-0.9c0.3-0.4,0.5-0.9,0.5-1.5c0-0.7-0.3-1.3-0.8-1.7
			c-0.5-0.4-1.2-0.7-1.9-0.9c-0.9-0.2-1.9-0.5-3-0.7s-2.1-0.5-3-0.8c-2.1-0.8-3.7-1.8-4.6-3s-1.4-2.9-1.4-4.8c0-2.6,1.1-4.7,3.3-6.3
			c2.2-1.6,4.9-2.4,8.2-2.4c1.6,0,3.3,0.2,4.9,0.5s3.1,0.8,4.4,1.4v6.3h-0.6c-1-0.9-2.3-1.6-3.8-2.2s-3-0.9-4.6-0.9
			c-0.6,0-1.2,0-1.6,0.1s-1,0.3-1.5,0.5c-0.4,0.2-0.8,0.5-1.1,0.9s-0.5,0.8-0.5,1.3c0,0.7,0.2,1.3,0.8,1.7c0.5,0.4,1.5,0.8,2.9,1.1
			c0.9,0.2,1.8,0.4,2.7,0.6s1.8,0.5,2.8,0.8c1.9,0.7,3.3,1.6,4.3,2.8s1.4,2.7,1.4,4.6c0,2.7-1.1,5-3.2,6.6S49,58.8,45.4,58.8z"/>
		<path fill="#F28A33" d="M89.1,58.3h-6.9V40l-5,11.8h-4.7l-5-11.8v18.3h-6.5V30.7h8L75,44.3l6.1-13.6h8V58.3z"/>
		<path fill="#F28A33" d="M103.4,58.8c-2.1,0-4-0.2-5.6-0.6c-1.6-0.4-3.1-0.9-4.5-1.5v-6.6H94c1.4,1.2,2.9,2.1,4.6,2.7
			s3.3,0.9,4.9,0.9c0.4,0,0.9,0,1.6-0.1c0.6-0.1,1.2-0.2,1.6-0.4c0.5-0.2,0.9-0.5,1.2-0.9c0.3-0.4,0.5-0.9,0.5-1.5
			c0-0.7-0.3-1.3-0.8-1.7c-0.5-0.4-1.2-0.7-1.9-0.9c-0.9-0.2-1.9-0.5-3-0.7c-1.1-0.2-2.1-0.5-3-0.8c-2.1-0.8-3.7-1.8-4.6-3
			s-1.4-2.9-1.4-4.8c0-2.6,1.1-4.7,3.3-6.3c2.2-1.6,4.9-2.4,8.2-2.4c1.6,0,3.3,0.2,4.9,0.5c1.6,0.3,3.1,0.8,4.4,1.4v6.3h-0.6
			c-1-0.9-2.3-1.6-3.8-2.2c-1.5-0.6-3-0.9-4.6-0.9c-0.6,0-1.2,0-1.6,0.1s-1,0.3-1.5,0.5c-0.4,0.2-0.8,0.5-1.1,0.9
			c-0.3,0.4-0.5,0.8-0.5,1.3c0,0.7,0.2,1.3,0.8,1.7c0.5,0.4,1.5,0.8,2.9,1.1c0.9,0.2,1.8,0.4,2.7,0.6c0.9,0.2,1.8,0.5,2.8,0.8
			c1.9,0.7,3.3,1.6,4.3,2.8c0.9,1.2,1.4,2.7,1.4,4.6c0,2.7-1.1,5-3.2,6.6C110,58,107,58.8,103.4,58.8z"/>
	</g>
</g>
</svg>
