<?xml version="1.0" encoding="utf-8"?>
<!-- Generator: Adobe Illustrator 18.1.0, SVG Export Plug-In . SVG Version: 6.00 Build 0)  -->
<svg version="1.1" id="Слой_1" xmlns="http://www.w3.org/2000/svg" xmlns:xlink="http://www.w3.org/1999/xlink" x="0px" y="0px"
	 viewBox="0 0 220 60" enable-background="new 0 0 220 60" xml:space="preserve">
<g>
	<g>
		<path fill="#FCB131" d="M50,52.2c5.3,4.8,12.4,7.8,20.1,7.8C86.6,60,100,46.6,100,30c0-16.6-13.4-30-29.9-30
			C62.4,0,55.3,2.9,50,7.8c-6,5.5-9.9,13.4-9.9,22.2S44,46.8,50,52.2L50,52.2z"/>
		<path fill="#ED1C2E" d="M59.7,26.8c-0.1-1.1-0.3-2.1-0.5-3.2H40.9c0.2-1.1,0.5-2.1,0.8-3.1h16.6c-0.4-1.1-0.8-2.2-1.2-3.2H43
			c0.5-1.1,1.1-2.2,1.7-3.2h10.6C54.6,13,53.9,11.9,53,11h-6c0.9-1.1,2-2.2,3-3.2C44.7,3,37.7,0,29.9,0C13.4,0,0,13.4,0,30
			c0,16.5,13.4,30,29.9,30c7.8,0,14.8-2.9,20.1-7.8l0,0l0,0c1.1-1,2.1-2,3-3.1h-6c-0.8-1-1.6-2.1-2.3-3.2h10.6
			c0.7-1,1.2-2.1,1.8-3.2H43c-0.5-1-0.9-2.1-1.3-3.1h16.6c0.4-1,0.6-2.1,0.9-3.2c0.2-1,0.4-2.1,0.5-3.2c0.1-1,0.2-2.1,0.2-3.1
			C59.8,28.9,59.8,27.9,59.7,26.8L59.7,26.8z"/>
		<path fill="#FFFFFF" d="M96,37c0-0.6,0.4-1,0.9-1c0.6,0,1,0.4,1,1c0,0.5-0.4,1-1,1C96.4,38,96,37.5,96,37L96,37z M97,37.7
			c0.4,0,0.8-0.3,0.8-0.7s-0.4-0.7-0.8-0.7c-0.4,0-0.7,0.3-0.7,0.7S96.6,37.7,97,37.7L97,37.7z M96.8,37.4h-0.2v-0.8H97
			c0.1,0,0.2,0,0.2,0c0.1,0.1,0.1,0.2,0.1,0.3c0,0.1-0.1,0.2-0.2,0.2l0.2,0.4h-0.3L97,37.1h-0.2V37.4v-0.5H97c0.1,0,0.1,0,0.1-0.1
			c0.1,0,0.1-0.1,0.1-0.1c0,0,0-0.1-0.1-0.1c0-0.1-0.1,0-0.1,0h-0.1v0.2V37.4L96.8,37.4z"/>
		<path fill="#003473" d="M39.8,38.7c-1,0.3-1.7,0.4-2.4,0.4c-1.6,0-2.5-1-2.5-2.7c0-0.4,0.1-0.7,0.1-1.1l0.2-1.2l0.2-1l1.4-8.4h3.1
			l-0.4,1.9h2L41,29.6h-2l-0.8,5c-0.1,0.3-0.1,0.4-0.1,0.5c0,0.7,0.3,0.9,1.1,0.9c0.4,0,0.7-0.1,1-0.1L39.8,38.7L39.8,38.7z"/>
		<path fill="#003473" d="M49.9,38.6c-1.1,0.3-2.2,0.5-3.3,0.5C43,39,41,37.2,41,33.5c0-4.3,2.4-7.4,5.7-7.4c2.6,0,4.3,1.8,4.3,4.5
			c0,0.9-0.1,1.8-0.4,3h-6.5c-0.1,0.2-0.1,0.3-0.1,0.4c0,1.4,1,2.2,2.8,2.2c1.2,0,2.2-0.3,3.4-0.8L49.9,38.6L49.9,38.6z M48,31.2
			c0-0.3,0-0.5,0-0.6c0-1-0.6-1.6-1.6-1.6c-1,0-1.8,0.8-2.1,2.2H48L48,31.2z"/>
		<polygon fill="#003473" points="15,38.8 11.8,38.8 13.7,27.1 9.5,38.8 7.3,38.8 7,27.2 5.1,38.8 1.9,38.8 4.4,23.6 9.1,23.6 
			9.2,33 12.4,23.6 17.6,23.6 		"/>
		<path fill="#003473" d="M22.8,33.3c-0.3-0.1-0.4-0.1-0.6-0.1c-1.9,0-2.8,0.7-2.8,1.9c0,0.8,0.5,1.3,1.2,1.3
			C22.2,36.4,22.8,35.1,22.8,33.3L22.8,33.3z M25.4,38.8h-2.8l0.1-1.3C22,38.5,21,39,19.3,39c-1.6,0-2.9-1.4-2.9-3.4
			c0-0.6,0.1-1.1,0.3-1.6c0.5-1.9,2.4-3.1,5.4-3.1c0.4,0,0.9,0,1.4,0.1c0.1-0.4,0.1-0.6,0.1-0.8c0-0.8-0.7-1.1-2.2-1.1
			c-0.9,0-2,0.2-2.7,0.4l-0.5,0.1L18,29.6l0.5-2.8c1.5-0.5,2.6-0.7,3.8-0.7c2.8,0,4.3,1.3,4.3,3.7c0,0.6,0.1,1.1-0.2,2.4l-0.7,4.4
			l-0.1,0.8l-0.1,0.6l-0.1,0.4L25.4,38.8L25.4,38.8z"/>
		<path fill="#003473" d="M65.5,26.6c0.9,0,1.8,0.3,2.9,0.8l0.6-3.3c-0.3-0.2-0.4-0.2-0.8-0.3l-1.3-0.4c-0.4-0.1-0.9-0.2-1.5-0.2
			c-1.6,0-2.5,0.1-3.5,0.6c-0.5,0.4-1.2,0.8-1.9,1.6l-0.4-0.1l-3.3,2.3l0.2-1.3h-3.4l-2,12.4h3.3l1.2-6.6c0,0,0.5-0.9,0.7-1.2
			c0.6-0.8,1.1-0.8,1.8-0.8c0.1,0,0.2,0,0.3,0c-0.1,0.7-0.2,1.5-0.2,2.4c0,4,2.3,6.5,5.8,6.5c0.9,0,1.7-0.1,2.8-0.4l0.6-3.5
			c-1,0.6-2,0.8-2.7,0.8c-1.9,0-3-1.4-3-3.7C61.3,28.9,63,26.6,65.5,26.6L65.5,26.6z"/>
		<path fill="#003473" d="M92.9,23.6L92.2,28c-0.8-1.2-1.7-1.8-2.9-1.8c-1.7,0-3.3,1-4.3,2.8V29l-2.1-1.2l0.2-1.3h-3.5l-2,12.4h3.2
			l1.1-6.6c0,0,0.8-0.9,1-1.2c0.5-0.6,1-0.7,1.4-0.8c-0.4,1-0.6,2.3-0.6,3.7c0,3.1,1.6,5.2,4,5.2c1.2,0,2.1-0.4,3-1.4l-0.2,1.2h3
			l2.5-15.2L92.9,23.6L92.9,23.6z M88.9,35.9c-1.1,0-1.7-0.8-1.7-2.4c0-2.4,1-4.2,2.5-4.2c1.1,0,1.7,0.9,1.7,2.4
			C91.5,34.2,90.5,35.9,88.9,35.9L88.9,35.9z"/>
		<path fill="#003473" d="M74,33.3c-0.3-0.1-0.4-0.1-0.6-0.1c-1.9,0-2.8,0.7-2.8,1.9c0,0.8,0.5,1.3,1.2,1.3
			C73.3,36.4,74,35.1,74,33.3L74,33.3z M76.6,38.8h-2.8l0.1-1.3c-0.7,1-1.7,1.5-3.4,1.5c-1.6,0-3-1.3-3-3.4c0-2.9,2.2-4.7,5.7-4.7
			c0.4,0,0.9,0,1.4,0.1c0.1-0.4,0.2-0.6,0.2-0.8c0-0.8-0.7-1.1-2.2-1.1c-0.9,0-2,0.2-2.7,0.4l-0.4,0.1l-0.2,0.1l0.5-2.8
			c1.5-0.5,2.6-0.7,3.8-0.7c2.8,0,4.2,1.3,4.2,3.7c0,0.6,0.1,1.1-0.2,2.4l-0.7,4.4l-0.1,0.8l-0.1,0.6l-0.1,0.4L76.6,38.8L76.6,38.8z
			"/>
		<path fill="#003473" d="M32.2,29.1c0.6,0,1.5,0.1,2.4,0.2l0.5-2.9c-0.9-0.1-2.2-0.3-2.9-0.3c-3.6,0-4.8,2-4.8,4.2
			c0,1.5,0.7,2.6,2.4,3.4c1.3,0.6,1.5,0.7,1.5,1.3c0,0.8-0.7,1.2-1.9,1.2c-1,0-1.9-0.2-2.9-0.5l-0.4,2.8l0.1,0.1l0.6,0.1
			c0.2,0.1,0.5,0.1,0.8,0.2C28.4,39,29,39,29.5,39c3.6,0,5.1-1.4,5.1-4.1c0-1.7-0.8-2.7-2.4-3.5c-1.4-0.6-1.6-0.7-1.6-1.3
			C30.6,29.6,31.2,29.1,32.2,29.1L32.2,29.1z"/>
		<path fill="#FFFFFF" d="M69.8,23.1l-0.6,3.3c-1.1-0.6-2-0.8-2.9-0.8c-2.4,0-4.1,2.4-4.1,5.7c0,2.3,1.1,3.7,3,3.7
			c0.8,0,1.7-0.3,2.7-0.8l-0.6,3.5c-1.2,0.3-2,0.5-2.8,0.5c-3.5,0-5.7-2.5-5.7-6.6c0-5.4,3-9.2,7.3-9.2c0.6,0,1.1,0.1,1.5,0.2
			l1.3,0.3C69.4,23,69.5,23,69.8,23.1L69.8,23.1z"/>
		<path fill="#FFFFFF" d="M59.4,25.4c-0.1,0-0.2,0-0.3,0c-1.1,0-1.7,0.5-2.7,2l0.3-1.9h-2.9l-2,12.4H55c1.2-7.6,1.5-8.9,3-8.9
			c0.1,0,0.1,0,0.2,0c0.3-1.5,0.7-2.6,1.2-3.6L59.4,25.4L59.4,25.4z"/>
		<path fill="#FFFFFF" d="M40.7,37.7c-0.9,0.3-1.6,0.4-2.3,0.4c-1.7,0-2.6-0.9-2.6-2.7c0-0.3,0.1-0.7,0.1-1.1l0.2-1.2l0.2-1l1.4-8.4
			h3.2l-0.4,1.9h1.7l-0.4,3h-1.7l-0.9,5.2c-0.1,0.2-0.1,0.4-0.1,0.5c0,0.6,0.3,0.9,1.1,0.9c0.4,0,0.7,0,0.9-0.1L40.7,37.7L40.7,37.7
			z"/>
		<path fill="#FFFFFF" d="M28.2,29.4c0,1.5,0.7,2.6,2.4,3.5c1.3,0.6,1.6,0.8,1.6,1.3c0,0.8-0.6,1.1-1.9,1.1c-1,0-1.9-0.2-2.9-0.5
			L27,37.7l0.2,0.1l0.6,0.1c0.2,0.1,0.5,0.1,0.9,0.1c0.7,0.1,1.3,0.1,1.8,0.1c3.4,0,5-1.3,5-4.1c0-1.7-0.7-2.7-2.3-3.5
			c-1.4-0.6-1.6-0.8-1.6-1.3c0-0.7,0.6-1,1.6-1c0.6,0,1.5,0.1,2.3,0.2l0.5-2.8c-0.8-0.2-2.1-0.3-2.8-0.3
			C29.5,25.2,28.2,27.1,28.2,29.4L28.2,29.4z"/>
		<path fill="#FFFFFF" d="M94.6,37.9h-3l0.2-1.2c-0.9,0.9-1.8,1.3-3,1.3c-2.4,0-3.9-2-3.9-5.1c0-4.1,2.4-7.6,5.3-7.6
			c1.3,0,2.2,0.6,3.1,1.7l0.7-4.3h3.2L94.6,37.9L94.6,37.9z M89.8,35c1.5,0,2.5-1.8,2.5-4.2c0-1.6-0.6-2.4-1.7-2.4
			c-1.4,0-2.5,1.7-2.5,4.1C88.1,34.1,88.7,35,89.8,35L89.8,35z"/>
		<path fill="#FFFFFF" d="M50.6,37.6c-1.1,0.4-2.2,0.5-3.4,0.5c-3.6,0-5.5-1.9-5.5-5.6c0-4.2,2.4-7.4,5.6-7.4c2.7,0,4.4,1.8,4.4,4.5
			c0,0.9-0.1,1.8-0.4,3.1H45c-0.1,0.2-0.1,0.3-0.1,0.4c0,1.4,1,2.2,2.8,2.2c1.2,0,2.2-0.2,3.4-0.8L50.6,37.6L50.6,37.6z M48.8,30.2
			c0-0.3,0-0.5,0-0.6c0-1-0.6-1.6-1.6-1.6c-1,0-1.8,0.8-2.1,2.2H48.8L48.8,30.2z"/>
		<polygon fill="#FFFFFF" points="15.9,37.9 12.7,37.9 14.5,26.2 10.3,37.9 8.1,37.9 7.9,26.3 5.9,37.9 2.9,37.9 5.4,22.7 
			10.1,22.7 10.2,32.1 13.3,22.7 18.4,22.7 		"/>
		<path fill="#FFFFFF" d="M23.9,32.3c-0.3,0-0.5-0.1-0.7-0.1c-1.8,0-2.7,0.7-2.7,1.9c0,0.8,0.4,1.2,1.1,1.2
			C22.9,35.4,23.8,34.2,23.9,32.3L23.9,32.3z M26.3,37.9h-2.7l0.1-1.3c-0.8,1-1.9,1.5-3.4,1.5c-1.8,0-2.9-1.3-2.9-3.3
			c0-3,2.1-4.8,5.7-4.8c0.4,0,0.8,0.1,1.3,0.1c0.1-0.4,0.1-0.6,0.1-0.8c0-0.8-0.6-1.1-2.1-1.1c-0.9,0-2,0.1-2.7,0.3l-0.5,0.2
			l-0.3,0.1l0.5-2.8c1.6-0.5,2.7-0.6,3.9-0.6c2.8,0,4.3,1.2,4.3,3.6c0,0.6-0.1,1.1-0.3,2.5l-0.7,4.4l-0.1,0.8l-0.1,0.6l-0.1,0.5
			L26.3,37.9L26.3,37.9z"/>
		<path fill="#FFFFFF" d="M75,32.3c-0.4,0-0.5-0.1-0.7-0.1c-1.9,0-2.8,0.7-2.8,1.9c0,0.8,0.5,1.2,1.2,1.2C74,35.4,75,34.2,75,32.3
			L75,32.3z M77.4,37.9h-2.7l0.1-1.3c-0.8,1-1.9,1.5-3.4,1.5c-1.8,0-2.9-1.3-2.9-3.3c0-3,2.1-4.8,5.7-4.8c0.4,0,0.8,0.1,1.3,0.1
			c0.1-0.4,0.2-0.6,0.2-0.8c0-0.8-0.6-1.1-2.1-1.1c-0.9,0-2,0.1-2.7,0.3l-0.4,0.2L70,28.6l0.5-2.8c1.6-0.5,2.7-0.6,3.9-0.6
			c2.8,0,4.2,1.2,4.2,3.6c0,0.6,0,1.1-0.3,2.5l-0.7,4.4l-0.1,0.8l-0.1,0.6l-0.1,0.5L77.4,37.9L77.4,37.9z"/>
		<path fill="#FFFFFF" d="M86.1,25.4c-0.1,0-0.2,0-0.3,0c-1.1,0-1.7,0.5-2.7,2l0.3-1.9h-2.9l-2,12.4h3.2c1.2-7.6,1.5-8.9,3-8.9
			c0.1,0,0.1,0,0.2,0c0.3-1.5,0.7-2.6,1.2-3.6L86.1,25.4L86.1,25.4z"/>
	</g>
	<g>
		<polygon fill="#005A9C" points="150.2,32.3 159.6,1.6 167.9,1.6 158.6,32.3 		"/>
		<path fill="#005A9C" d="M146.5,1.6l-7.5,13c-1.9,3.4-3,5.1-3.6,7.3h-0.1c0.1-2.7-0.2-6.1-0.3-8l-0.8-12.3h-14L120,2.5
			c3.6,0,5.7,1.8,6.3,5.5l2.7,24.4h8.6l17.5-30.7L146.5,1.6L146.5,1.6z"/>
		<path fill="#005A9C" d="M211.4,32.3l-0.2-4.6l-10.4,0l-2.1,4.6h-9.1l16.4-30.7h11.1l2.8,30.7L211.4,32.3L211.4,32.3z M210.4,14.2
			c-0.1-2.3-0.2-5.4,0-7.2h-0.1c-0.5,1.5-2.7,6.1-3.6,8.4l-3.1,6.7h7.3L210.4,14.2L210.4,14.2z"/>
		<path fill="#005A9C" d="M176.7,33.2c-5.9,0-9.8-1.9-12.6-3.5l4-6c2.5,1.4,4.5,3,9,3c1.5,0,2.9-0.4,3.7-1.8c1.2-2-0.3-3.1-3.5-4.9
			l-1.6-1c-4.8-3.3-6.9-6.4-4.6-11.9c1.5-3.5,5.3-6.1,11.6-6.1c4.4,0,8.5,1.9,10.8,3.7l-4.6,5.3c-2.3-1.9-4.3-2.8-6.5-2.8
			c-1.8,0-3.1,0.7-3.6,1.6c-0.9,1.7,0.3,2.9,2.8,4.5l1.9,1.2c5.9,3.7,7.3,7.6,5.8,11.2C186.8,31.8,181.8,33.2,176.7,33.2L176.7,33.2
			z"/>
		<path fill="#FBAA29" d="M127.7,59.1c21.6-9.2,51.8-17.6,91.9-9.2l0.4-10.1c-42.3-4.6-72.6,8.8-92.3,18.3L127.7,59.1L127.7,59.1z"
			/>
	</g>
</g>
</svg>
